HIERARCHY
ROOT hip
{
OFFSET 2.36 83.58 -1.64
CHANNELS 6 Xposition Yposition Zposition Zrotation Xrotation Yrotation
JOINT abdomen
{
OFFSET 0 7.23 0
CHANNELS 6 Xposition Yposition Zposition Zrotation Xrotation Yrotation
JOINT chest
{
OFFSET 0 16.54 0
CHANNELS 6 Xposition Yposition Zposition Zrotation Xrotation Yrotation
JOINT neck
{
OFFSET 0 34.21 0
CHANNELS 6 Xposition Yposition Zposition Zrotation Xrotation Yrotation
JOINT head
{
OFFSET 0 6.29 0
CHANNELS 6 Xposition Yposition Zposition Zrotation Xrotation Yrotation
End Site
{
OFFSET 0 21.21 0
}
}
}
JOINT lCollar
{
OFFSET 4.06 26.61 -1.12
CHANNELS 6 Xposition Yposition Zposition Zrotation Xrotation Yrotation
JOINT lShldr
{
OFFSET 14.17 0 0
CHANNELS 6 Xposition Yposition Zposition Zrotation Xrotation Yrotation
JOINT lForeArm
{
OFFSET 26.12 0 0
CHANNELS 6 Xposition Yposition Zposition Zrotation Xrotation Yrotation
JOINT lHand
{
OFFSET 27.71 0 0
CHANNELS 6 Xposition Yposition Zposition Zrotation Xrotation Yrotation
JOINT lThumb1
{
OFFSET 2.29 -0.46 1.83
CHANNELS 6 Xposition Yposition Zposition Zrotation Xrotation Yrotation
JOINT lThumb2
{
OFFSET 5.29 0 0
CHANNELS 6 Xposition Yposition Zposition Zrotation Xrotation Yrotation
JOINT lThumb3
{
OFFSET 3.01 0 0
CHANNELS 6 Xposition Yposition Zposition Zrotation Xrotation Yrotation
End Site
{
OFFSET 2.62 0 0
}
}
}
}
JOINT lIndex1
{
OFFSET 9.37 0.29 2.59
CHANNELS 6 Xposition Yposition Zposition Zrotation Xrotation Yrotation
JOINT lIndex2
{
OFFSET 4.34 0 0
CHANNELS 6 Xposition Yposition Zposition Zrotation Xrotation Yrotation
JOINT lIndex3
{
OFFSET 2.16 0 0
CHANNELS 6 Xposition Yposition Zposition Zrotation Xrotation Yrotation
End Site
{
OFFSET 2.20 0 0
}
}
}
}
JOINT lMid1
{
OFFSET 9.47 0.83 0.29
CHANNELS 6 Xposition Yposition Zposition Zrotation Xrotation Yrotation
JOINT lMid2
{
OFFSET 4.77 0 0
CHANNELS 6 Xposition Yposition Zposition Zrotation Xrotation Yrotation
JOINT lMid3
{
OFFSET 2.87 0 0
CHANNELS 6 Xposition Yposition Zposition Zrotation Xrotation Yrotation
End Site
{
OFFSET 2.09 0 0
}
}
}
}
JOINT lRing1
{
OFFSET 8.65 1.01 -1.70
CHANNELS 6 Xposition Yposition Zposition Zrotation Xrotation Yrotation
JOINT lRing2
{
OFFSET 4.54 0 0
CHANNELS 6 Xposition Yposition Zposition Zrotation Xrotation Yrotation
JOINT lRing3
{
OFFSET 2.50 0 0
CHANNELS 6 Xposition Yposition Zposition Zrotation Xrotation Yrotation
End Site
{
OFFSET 2.20 0 0
}
}
}
}
JOINT lPinky1
{
OFFSET 7.69 0.66 -3.90
CHANNELS 6 Xposition Yposition Zposition Zrotation Xrotation Yrotation
JOINT lPinky2
{
OFFSET 3.21 0 0
CHANNELS 6 Xposition Yposition Zposition Zrotation Xrotation Yrotation
JOINT lPinky3
{
OFFSET 1.92 0 0
CHANNELS 6 Xposition Yposition Zposition Zrotation Xrotation Yrotation
End Site
{
OFFSET 1.78 0 0
}
}
}
}
}
}
}
}
JOINT rCollar
{
OFFSET -4.06 26.61 -1.12
CHANNELS 6 Xposition Yposition Zposition Zrotation Xrotation Yrotation
JOINT rShldr
{
OFFSET -14.17 0 0
CHANNELS 6 Xposition Yposition Zposition Zrotation Xrotation Yrotation
JOINT rForeArm
{
OFFSET -26.12 0 0
CHANNELS 6 Xposition Yposition Zposition Zrotation Xrotation Yrotation
JOINT rHand
{
OFFSET -27.71 0 0
CHANNELS 6 Xposition Yposition Zposition Zrotation Xrotation Yrotation
JOINT rThumb1
{
OFFSET -2.29 -0.46 1.83
CHANNELS 6 Xposition Yposition Zposition Zrotation Xrotation Yrotation
JOINT rThumb2
{
OFFSET -5.29 0 0
CHANNELS 6 Xposition Yposition Zposition Zrotation Xrotation Yrotation
JOINT rThumb3
{
OFFSET -3.01 0 0
CHANNELS 6 Xposition Yposition Zposition Zrotation Xrotation Yrotation
End Site
{
OFFSET -2.62 0 0
}
}
}
}
JOINT rIndex1
{
OFFSET -9.37 0.29 2.59
CHANNELS 6 Xposition Yposition Zposition Zrotation Xrotation Yrotation
JOINT rIndex2
{
OFFSET -4.34 0 0
CHANNELS 6 Xposition Yposition Zposition Zrotation Xrotation Yrotation
JOINT rIndex3
{
OFFSET -2.16 0 0
CHANNELS 6 Xposition Yposition Zposition Zrotation Xrotation Yrotation
End Site
{
OFFSET -2.20 0 0
}
}
}
}
JOINT rMid1
{
OFFSET -9.47 0.83 0.29
CHANNELS 6 Xposition Yposition Zposition Zrotation Xrotation Yrotation
JOINT rMid2
{
OFFSET -4.77 0 0
CHANNELS 6 Xposition Yposition Zposition Zrotation Xrotation Yrotation
JOINT rMid3
{
OFFSET -2.87 0 0
CHANNELS 6 Xposition Yposition Zposition Zrotation Xrotation Yrotation
End Site
{
OFFSET -2.09 0 0
}
}
}
}
JOINT rRing1
{
OFFSET -8.65 1.01 -1.70
CHANNELS 6 Xposition Yposition Zposition Zrotation Xrotation Yrotation
JOINT rRing2
{
OFFSET -4.54 0 0
CHANNELS 6 Xposition Yposition Zposition Zrotation Xrotation Yrotation
JOINT rRing3
{
OFFSET -2.50 0 0
CHANNELS 6 Xposition Yposition Zposition Zrotation Xrotation Yrotation
End Site
{
OFFSET -2.20 0 0
}
}
}
}
JOINT rPinky1
{
OFFSET -7.69 0.66 -3.90
CHANNELS 6 Xposition Yposition Zposition Zrotation Xrotation Yrotation
JOINT rPinky2
{
OFFSET -3.21 0 0
CHANNELS 6 Xposition Yposition Zposition Zrotation Xrotation Yrotation
JOINT rPinky3
{
OFFSET -1.92 0 0
CHANNELS 6 Xposition Yposition Zposition Zrotation Xrotation Yrotation
End Site
{
OFFSET -1.78 0 0
}
}
}
}
}
}
}
}
}
}
JOINT lThigh
{
OFFSET 8.73 -0 0
CHANNELS 6 Xposition Yposition Zposition Zrotation Xrotation Yrotation
JOINT lShin
{
OFFSET 0 -46.66 0
CHANNELS 6 Xposition Yposition Zposition Zrotation Xrotation Yrotation
JOINT lFoot
{
OFFSET 0 -40.14 0
CHANNELS 6 Xposition Yposition Zposition Zrotation Xrotation Yrotation
JOINT lToes
{
OFFSET 0 -8.88 14.22
CHANNELS 6 Xposition Yposition Zposition Zrotation Xrotation Yrotation
End Site
{
OFFSET 0 0 6.29
}
}
}
}
}
JOINT rThigh
{
OFFSET -8.73 0 -0
CHANNELS 6 Xposition Yposition Zposition Zrotation Xrotation Yrotation
JOINT rShin
{
OFFSET 0 -46.66 0
CHANNELS 6 Xposition Yposition Zposition Zrotation Xrotation Yrotation
JOINT rFoot
{
OFFSET 0 -40.14 0
CHANNELS 6 Xposition Yposition Zposition Zrotation Xrotation Yrotation
JOINT rToes
{
OFFSET 0 -8.88 14.22
CHANNELS 6 Xposition Yposition Zposition Zrotation Xrotation Yrotation
End Site
{
OFFSET 0 0 6.29
}
}
}
}
}
}
MOTION
Frames: 4
Frame Time: 0.03
2.36 83.58 -1.64 -3.40 18.92 -9.08 0 7.23 0 6.60 8.25 5.00 0 16.54 0 8.10 18.64 8.58 0 34.21 0 -5.88 30.22 0.92 0 6.29 0 -17.95 -51.89 -14.92 4.06 26.61 -1.12 9.40 1.03 9.22 14.17 0 0 -79.87 23.72 55.91 26.12 0 0 -1.76 1.75 -112.11 27.71 0 0 11.81 0.71 -10.09 2.29 -0.46 1.83 64.39 64.76 -96.47 5.29 0 0 -22.39 -2.01 -4.40 3.01 0 0 12.48 -0 0 9.37 0.29 2.59 -27.51 -3.47 -2.68 4.34 0 0 -69.13 -2.71 0.01 2.16 0 0 -2.16 0 0 9.47 0.83 0.29 -46.05 -7.25 3.63 4.77 0 0 -69.10 -3.71 3.30 2.87 0 0 3.95 0.07 0.39 8.65 1.01 -1.70 -53.95 -0.86 6.17 4.54 0 0 -65.29 1.80 -2.94 2.50 0 0 6.76 0 0 7.69 0.66 -3.90 -49.79 -18.82 12.67 3.21 0 0 -65.39 -4.68 5.26 1.92 0 0 4.41 0 0 -4.06 26.61 -1.12 -2.19 -5.94 9.72 -14.17 0 0 60.30 4.18 55.18 -26.12 0 0 0.88 0.32 107.82 -27.71 0 0 9.49 19.75 10.75 -2.29 -0.46 1.83 -60.48 68.83 96.08 -5.29 0 0 9.82 6.73 -8.15 -3.01 0 0 -12.48 0 0 -9.37 0.29 2.59 41.59 -4.30 -6.94 -4.34 0 0 72.73 -3.01 0.23 -2.16 0 0 2.16 0 0 -9.47 0.83 0.29 47.18 -7.33 -6.26 -4.77 0 0 61.86 -3.43 -3.09 -2.87 0 0 -3.95 0.07 -0.39 -8.65 1.01 -1.70 57.40 -1.02 -9.16 -4.54 0 0 63.84 2.12 2.59 -2.50 0 0 -6.76 0 0 -7.69 0.66 -3.90 41.73 -19.15 -15.63 -3.21 0 0 62.55 -3.70 -5.47 -1.92 0 0 -4.41 0 0 8.73 -0 0 32.54 -56.78 43.59 0 -46.66 0 168.74 49.82 -171.57 0 -40.14 0 18.28 -48.26 26.06 0 -8.88 14.22 0 0 0 -8.73 0 -0 10.63 -25.19 -9.60 0 -46.66 0 -17.31 56.04 2.38 0 -40.14 0 11.27 -36.17 -5.22 0 -8.88 14.22 0 0 0 
3.20 81.04 -0.46 -8.64 26.44 -7.67 0 7.23 0 5.07 6.84 3.56 0 16.54 0 6.16 15.61 5.30 0 34.21 0 -6.90 33.09 1.89 0 6.29 0 -14.44 -56.06 -10.17 4.06 26.61 -1.12 10.98 0.72 11.18 14.17 0 0 -71.56 17.25 63.68 26.12 0 0 0.05 0.97 -133.56 27.71 0 0 13.72 -0.15 -5.81 2.29 -0.46 1.83 65.23 66.25 -96.92 5.29 0 0 -22.16 3.34 -0.60 3.01 0 0 12.48 -0 0 9.37 0.29 2.59 -18.25 -4.40 -2.25 4.34 0 0 -60.58 -2.40 0.26 2.16 0 0 -2.16 0 0 9.47 0.83 0.29 -38.47 -7.01 3.69 4.77 0 0 -59.59 -3.03 3.21 2.87 0 0 3.95 0.07 0.39 8.65 1.01 -1.70 -47.81 -0.63 6.29 4.54 0 0 -57.27 1.44 -2.78 2.50 0 0 6.76 0 0 7.69 0.66 -3.90 -44.49 -18.66 14.46 3.21 0 0 -60.07 -3.98 4.85 1.92 0 0 4.41 0 0 -4.06 26.61 -1.12 7.65 -12.14 18.28 -14.17 0 0 54.70 3.17 41.70 -26.12 0 0 24.23 7.05 104.92 -27.71 0 0 27.56 33.46 7.11 -2.29 -0.46 1.83 -57.70 66.41 92.32 -5.29 0 0 10.98 3.39 -3.46 -3.01 0 0 -12.48 0 0 -9.37 0.29 2.59 46.59 -4.06 -6.54 -4.34 0 0 75.00 -3.09 0.32 -2.16 0 0 2.16 0 0 -9.47 0.83 0.29 50.12 -7.33 -5.92 -4.77 0 0 66.07 -3.74 -3.10 -2.87 0 0 -3.95 0.07 -0.39 -8.65 1.01 -1.70 60.39 -1.09 -8.55 -4.54 0 0 65.49 2.20 2.62 -2.50 0 0 -6.76 0 0 -7.69 0.66 -3.90 44.08 -18.89 -14.95 -3.21 0 0 62.97 -3.75 -5.51 -1.92 0 0 -4.41 0 0 8.73 -0 0 48.29 -61.21 57.54 0 -46.66 0 130.77 74.92 -138.02 0 -40.14 0 9.43 -44.66 24.67 0 -8.88 14.22 0 0 0 -8.73 0 -0 16.45 -13.65 -5.21 0 -46.66 0 -17.10 43.68 -5.34 0 -40.14 0 8.77 -23.40 -1.21 0 -8.88 14.22 0 0 0 
3.01 75.86 2.12 -14.56 34.05 -2.55 0 7.23 0 3.68 5.42 1.39 0 16.54 0 3.31 12.67 1.34 0 34.21 0 -7.96 33.82 2.66 0 6.29 0 -6.32 -59.59 -1.03 4.06 26.61 -1.12 12.72 -0.33 10.98 14.17 0 0 -40.40 5.05 54.39 26.12 0 0 -3.48 9.63 -157.31 27.71 0 0 13.46 -1.36 15.04 2.29 -0.46 1.83 64.45 65.84 -94.96 5.29 0 0 -25.59 5.84 0.93 3.01 0 0 12.48 -0 0 9.37 0.29 2.59 -13.57 -4.83 -2.30 4.34 0 0 -52.94 -2.10 0.45 2.16 0 0 -2.16 0 0 9.47 0.83 0.29 -33.96 -6.84 3.32 4.77 0 0 -51.97 -2.50 3.06 2.87 0 0 3.95 0.07 0.39 8.65 1.01 -1.70 -45.73 -0.54 5.77 4.54 0 0 -50.70 1.17 -2.61 2.50 0 0 6.76 0 0 7.69 0.66 -3.90 -42.22 -18.55 16.92 3.21 0 0 -55.05 -3.36 4.41 1.92 0 0 4.41 0 0 -4.06 26.61 -1.12 10.63 -17.71 23.80 -14.17 0 0 49.14 2.70 27.69 -26.12 0 0 6.11 1.65 103.09 -27.71 0 0 19.06 32.61 21.65 -2.29 -0.46 1.83 -54.16 61.09 86.42 -5.29 0 0 14.92 -2.72 7.70 -3.01 0 0 -12.48 0 0 -9.37 0.29 2.59 57.21 -3.76 -5.42 -4.34 0 0 78.94 -3.20 0.48 -2.16 0 0 2.16 0 0 -9.47 0.83 0.29 56.64 -7.42 -4.93 -4.77 0 0 74.33 -4.36 -3.07 -2.87 0 0 -3.95 0.07 -0.39 -8.65 1.01 -1.70 66.67 -1.20 -7.06 -4.54 0 0 69.09 2.37 2.65 -2.50 0 0 -6.76 0 0 -7.69 0.66 -3.90 49.36 -18.12 -13.46 -3.21 0 0 63.48 -3.81 -5.55 -1.92 0 0 -4.41 0 0 8.73 -0 0 48.73 -60.18 54.93 0 -46.66 0 78.01 75.94 -83.61 0 -40.14 0 0.65 -52.32 20.34 0 -8.88 14.22 0 0 -0 -8.73 0 -0 15.46 1.25 -0.61 0 -46.66 0 -2.40 22.00 -12.45 0 -40.14 0 -1.88 -9.76 -4.54 0 -8.88 14.22 0 0 0 
2.64 70.25 3.79 -20.95 41.62 5.10 0 7.23 0 2.65 4.30 -1.13 0 16.54 0 1.87 10.42 -3.27 0 34.21 0 -8.60 33.06 3.46 0 6.29 0 4.26 -61.34 10.84 4.06 26.61 -1.12 14.43 -1.85 9.17 14.17 0 0 -8.50 -37.60 11.24 26.12 0 0 -17.48 27.70 -144.84 27.71 0 0 11.26 -2.29 53.60 2.29 -0.46 1.83 62.72 64.13 -91.80 5.29 0 0 -31.90 5.88 1.83 3.01 0 0 12.48 -0 0 9.37 0.29 2.59 -11.64 -4.49 -2.62 4.34 0 0 -45.81 -1.80 0.58 2.16 0 0 -2.16 0 0 9.47 0.83 0.29 -31.20 -6.68 2.73 4.77 0 0 -45.43 -2.06 2.88 2.87 0 0 3.95 0.07 0.39 8.65 1.01 -1.70 -45.79 -0.52 4.91 4.54 0 0 -44.94 0.95 -2.44 2.50 0 0 6.76 0 0 7.69 0.66 -3.90 -41.50 -18.47 19.55 3.21 0 0 -50.08 -2.78 3.92 1.92 0 0 4.41 0 0 -4.06 26.61 -1.12 6.55 -18.32 21.09 -14.17 0 0 39.59 -1.92 24.90 -26.12 0 0 5.47 1.76 104.29 -27.71 0 0 2.81 23.30 15.83 -2.29 -0.46 1.83 -53.65 56.23 83.04 -5.29 0 0 23.96 -9.78 19.48 -3.01 0 0 -12.48 0 0 -9.37 0.29 2.59 66.65 -3.93 -3.42 -4.34 0 0 80.04 -3.23 0.53 -2.16 0 0 2.16 0 0 -9.47 0.83 0.29 63.14 -7.65 -3.31 -4.77 0 0 79.83 -4.76 -2.99 -2.87 0 0 -3.95 0.07 -0.39 -8.65 1.01 -1.70 72.08 -1.26 -5.25 -4.54 0 0 72.53 2.54 2.67 -2.50 0 0 -6.76 0 0 -7.69 0.66 -3.90 54.87 -16.89 -11.98 -3.21 0 0 62.90 -3.74 -5.50 -1.92 0 0 -4.41 0 0 8.73 -0 0 48.41 -55.97 50.61 0 -46.66 0 104.41 76.38 -106.80 0 -40.14 0 -10.09 -63.14 7.29 0 -8.88 14.22 0 0 0 -8.73 0 -0 22.60 -24.26 -2.62 0 -46.66 0 -23.78 60.31 7.64 0 -40.14 0 3.18 -20.86 -4.12 0 -8.88 14.22 0 0 -0 
